# xmcd
#
# Track frame offsets: 
#        150
#        11865
#        23824
#        35739
#        47761
#        60074
#        72385
#        85619
#        97626
#        109649
#        122261
#        134870
#        146152
#        157005
#        170211
#        183032
#        196365
#        208732
#        221814
#        234340
#        244596
#        258105
#        268693
#        280849
#        294306
#
# Disc length: 4091 seconds
#
# Revision: 1
# Processed by: cddbd v1.5.2PL0 Copyright (c) Steve Scherf et al.
# Submitted via: ExactAudioCopy v0.99pb5
#
DISCID=680ff919
DTITLE=Various Artist - Stompin' Singers and Western Swingers - CD3
DYEAR=2005
DGENRE=Country
TTITLE0=Al Dexter - Who's Gonna Love You When I'm Gone  (1945)
TTITLE1=Billy Briggs Xit Boys - Panhandle Shuffle (1949)
TTITLE2=Bob Wills - Bob Wills Boogie (1946)
TTITLE3=Bob Wills - The Devil Ain't Lazy (1947)
TTITLE4=Boots Woodall - Rattle Snakin' Daddy (1947)
TTITLE5=Bud Hobbs - Honey There Ain't No Pleasin' You (1947)
TTITLE6=Curley Williams - Georgia Boogie (1948)
TTITLE7=Jimmie Widener - That's My Linda Lou (1948)
TTITLE8=Johnny Tyler - It Ain't Far To The Bar (1947)
TTITLE9=Luke Wills Rhythm Busters - Shut Up And Drink Your Beer (1947)
TTITLE10=Smokey Rogers - Drinkin' And A-Thinkin' (1948)
TTITLE11=Bob Wills - Silver Dew On The Bluegrass (1945)
TTITLE12=Jerry Irby and His Texas Rangers - Great Long Pistol (1948)
TTITLE13=Tex Williams - Never Trust A Woman (1947)
TTITLE14=Leon Rusk - Air Mail Special On The Fly (1946)
TTITLE15=Tex Russell - What It Means To Be Blue (1946)
TTITLE16=Jimmy Widener - I'm All Through Trusting You (1946)
TTITLE17=Luke Wills Rhythm Busters - High Voltage Gal (1947)
TTITLE18=Tex Williams - That's What I Like About The West (1947)
TTITLE19=Hoyle Nix - Comin' Down The Pecos (1949)
TTITLE20=Ted Daffan's Texans - Deep Down Inside (1946)
TTITLE21=Johnny Tyler - Behind The Eight Ball (1947)
TTITLE22=Al Clauser and His Oklahomans - My Sweet Papa (1946)
TTITLE23=Smokey Rogers - I Can't Help The Way You Feel (1946)
TTITLE24=Hoyle Nix - Darling Why Are You So Mean To Me (1949)
EXTD=YEAR: 2005
EXTT0=
EXTT1=
EXTT2=
EXTT3=
EXTT4=
EXTT5=
EXTT6=
EXTT7=
EXTT8=
EXTT9=
EXTT10=
EXTT11=
EXTT12=
EXTT13=
EXTT14=
EXTT15=
EXTT16=
EXTT17=
EXTT18=
EXTT19=
EXTT20=
EXTT21=
EXTT22=
EXTT23=
EXTT24=
PLAYORDER=
